<?xml version="1.0" encoding="iso-8859-1"?>
<!-- Generator: Adobe Illustrator 16.0.0, SVG Export Plug-In . SVG Version: 6.00 Build 0)  -->
<!DOCTYPE svg PUBLIC "-//W3C//DTD SVG 1.1//EN" "http://www.w3.org/Graphics/SVG/1.1/DTD/svg11.dtd">
<svg version="1.1" id="Capa_1" xmlns="http://www.w3.org/2000/svg" xmlns:xlink="http://www.w3.org/1999/xlink" x="0px" y="0px"
	 width="319.032px" height="319.032px" viewBox="0 0 319.032 319.032" style="enable-background:new 0 0 319.032 319.032;"
	 xml:space="preserve">
<g>
	<path style="fill:#FFF;" d="M45.351,0v319.032h228.33V0H45.351z M263.513,308.232h-208V10.8h208V308.232z M111.285,58.126h-4.142
		c0.087-0.601,0.303-1.076,0.644-1.426c0.34-0.351,0.82-0.525,1.434-0.525c0.57,0,1.044,0.168,1.426,0.499
		C111.037,57.003,111.245,57.483,111.285,58.126z M108.45,118.795c-2.365,0-4.25-0.87-5.661-2.613
		c-1.408-1.745-2.109-4.224-2.109-7.44c0-3.22,0.702-5.698,2.109-7.444c1.411-1.743,3.296-2.613,5.661-2.613
		c2.36,0,4.237,0.875,5.627,2.623c1.387,1.751,2.083,4.229,2.083,7.434c0,3.217-0.696,5.695-2.083,7.44
		C112.688,117.925,110.815,118.795,108.45,118.795z M252.713,21.6h-186.4v275.833h186.4V21.6z M233.138,137.015v9.471H83.291v-9.471
		H233.138z M94.75,108.741c0-5.234,1.447-9.16,4.34-11.784c2.157-2.22,5.276-3.333,9.36-3.333c4.082,0,7.204,1.113,9.358,3.333
		c2.876,2.624,4.319,6.55,4.319,11.784c0,5.128-1.442,9.054-4.319,11.78c-2.154,2.221-5.276,3.333-9.358,3.333
		c-4.084,0-7.203-1.112-9.36-3.333C96.197,117.795,94.75,113.864,94.75,108.741z M126.588,123.056V94.495h6.251l11.341,19.916
		V94.495h5.563v28.561h-5.967l-11.628-20.266v20.266H126.588z M154.856,123.056V94.495h5.936v28.561H154.856z M173.495,116.554
		c1.604,1.458,3.428,2.188,5.464,2.188c2.004,0,3.654-0.575,4.925-1.725c1.276-1.149,2.073-2.658,2.363-4.514h-6.613v-4.772h11.896
		v15.325h-3.955l-0.59-3.565c-1.16,1.35-2.184,2.302-3.102,2.858c-1.582,0.96-3.517,1.445-5.811,1.445
		c-3.781,0-6.882-1.311-9.303-3.929c-2.521-2.637-3.775-6.238-3.775-10.808c0-4.623,1.275-8.327,3.817-11.111
		c2.547-2.787,5.912-4.18,10.094-4.18c3.628,0,6.539,0.918,8.743,2.758s3.47,4.137,3.786,6.89h-5.874
		c-0.454-1.949-1.551-3.314-3.312-4.087c-0.98-0.428-2.077-0.639-3.264-0.639c-2.305,0-4.198,0.87-5.68,2.603
		c-1.472,1.735-2.215,4.343-2.215,7.82C171.091,112.611,171.893,115.096,173.495,116.554z M214.228,105.387V94.495h5.933v28.561
		h-5.933v-12.751h-11.105v12.751h-5.938V94.495h5.938v10.892H214.228z M232.089,123.056V99.555h-8.591v-5.06h23.14v5.06h-8.543
		v23.501H232.089z M132.149,54.788h2.555v2.521h-2.555V54.788z M132.149,61.111h2.555v2.523h-2.555V61.111z M125.892,54.52v-2.565
		h2.381v2.565h1.495v1.711h-1.495v4.859c0,0.377,0.047,0.609,0.145,0.702s0.391,0.14,0.881,0.14c0.071,0,0.15,0,0.232-0.005
		c0.082,0,0.161-0.005,0.237-0.011v1.804l-1.139,0.045c-1.134,0.037-1.911-0.158-2.328-0.588c-0.269-0.277-0.403-0.704-0.403-1.276
		v-5.658h-1.281V54.52H125.892z M115.021,54.453h2.328v1.34c0.306-0.47,0.599-0.814,0.875-1.021c0.49-0.372,1.115-0.557,1.872-0.557
		c0.946,0,1.717,0.248,2.323,0.744c0.598,0.498,0.901,1.323,0.901,2.481v6.194h-2.463v-5.596c0-0.485-0.065-0.854-0.195-1.112
		c-0.232-0.475-0.68-0.707-1.339-0.707c-0.81,0-1.366,0.346-1.669,1.037c-0.156,0.367-0.232,0.831-0.232,1.397v4.981h-2.402V54.453z
		 M105.932,55.469c0.844-0.847,1.938-1.273,3.288-1.273c0.801,0,1.524,0.145,2.167,0.432c0.641,0.285,1.171,0.738,1.587,1.361
		c0.377,0.543,0.62,1.181,0.733,1.898c0.066,0.422,0.092,1.033,0.082,1.827h-6.695c0.037,0.923,0.356,1.571,0.96,1.938
		c0.367,0.232,0.81,0.346,1.329,0.346c0.546,0,0.994-0.14,1.334-0.422c0.188-0.15,0.351-0.361,0.496-0.63h2.457
		c-0.066,0.546-0.361,1.102-0.891,1.661c-0.825,0.896-1.975,1.339-3.462,1.339c-1.226,0-2.305-0.377-3.238-1.134
		c-0.937-0.754-1.405-1.979-1.405-3.681C104.669,57.538,105.091,56.317,105.932,55.469z M97.574,54.438l1.917,6.782l1.954-6.782
		h2.582l-3.32,9.197h-2.539l-3.298-9.197H97.574z M84.527,51.197h9.12v2.204h-6.581v2.64h6.041V58.2h-6.041v3.198h6.885v2.236
		h-9.424V51.197z M83.291,72.214h149.847v9.471H83.291V72.214z M69.888,94.495h23.132v5.06H84.48v23.501h-6.006V99.555h-8.585
		V94.495z M87.697,185.883l5.529-17.027l5.529,17.027h17.903l-14.483,10.521l5.529,17.022l-14.483-10.516L78.74,213.427
		l5.529-17.022l-14.484-10.521H87.697z M108.06,290.25c-16.901,0-30.602-13.7-30.602-30.602s13.701-30.602,30.602-30.602
		s30.602,13.7,30.602,30.602S124.961,290.25,108.06,290.25z M191.53,211.95H127.5v-5.4h64.03V211.95z M191.53,195.75H127.5v-5.4
		h64.03V195.75z M191.53,179.55H127.5v-5.399h64.03V179.55z M240.036,213.427l-14.481-10.516l-14.491,10.516l5.532-17.022
		l-14.486-10.521h17.897l5.527-17.027l5.526,17.027h17.903l-14.486,10.521L240.036,213.427z M121.468,243.602l-34.019,19.574
		l-2.695-4.683l34.019-19.575L121.468,243.602z M126.409,252.224L92.39,271.793l-2.695-4.678l34.019-19.575L126.409,252.224z
		 M128.706,256.152l2.689,4.683l-34.038,19.543l-2.689-4.683L128.706,256.152z"/>
</g>
<g>
</g>
<g>
</g>
<g>
</g>
<g>
</g>
<g>
</g>
<g>
</g>
<g>
</g>
<g>
</g>
<g>
</g>
<g>
</g>
<g>
</g>
<g>
</g>
<g>
</g>
<g>
</g>
<g>
</g>
</svg>
